<svg width="0" height="0" class="hidden">
  <symbol fill="none" xmlns="http://www.w3.org/2000/svg" viewBox="0 0 31 30" id="calendar">
    <path d="M24.4109 5H6.92441C5.54476 5 4.42633 6.11929 4.42633 7.5V25C4.42633 26.3807 5.54476 27.5 6.92441 27.5H24.4109C25.7906 27.5 26.909 26.3807 26.909 25V7.5C26.909 6.11929 25.7906 5 24.4109 5Z" stroke="#17C2EC" stroke-width="2" stroke-linecap="round" stroke-linejoin="round"></path>
    <path d="M20.6638 2.5V7.5" stroke="#17C2EC" stroke-width="2" stroke-linecap="round" stroke-linejoin="round"></path>
    <path d="M10.6715 2.5V7.5" stroke="#17C2EC" stroke-width="2" stroke-linecap="round" stroke-linejoin="round"></path>
    <path d="M4.42633 12.5H26.909" stroke="#17C2EC" stroke-width="2" stroke-linecap="round" stroke-linejoin="round"></path>
  </symbol>
  <symbol fill="none" xmlns="http://www.w3.org/2000/svg" viewBox="0 0 50 50" id="facebook">
    <path d="M37.5 4.1665H31.25C28.4874 4.1665 25.8378 5.26397 23.8843 7.21748C21.9308 9.17098 20.8334 11.8205 20.8334 14.5832V20.8332H14.5834V29.1665H20.8334V45.8332H29.1667V29.1665H35.4167L37.5 20.8332H29.1667V14.5832C29.1667 14.0306 29.3862 13.5007 29.7769 13.11C30.1676 12.7193 30.6975 12.4998 31.25 12.4998H37.5V4.1665Z" stroke="white" stroke-width="2" stroke-linecap="round" stroke-linejoin="round"></path>
  </symbol>
  <symbol fill="none" xmlns="http://www.w3.org/2000/svg" viewBox="0 0 50 50" id="instagram">
    <path d="M35.4166 4.1665H14.5833C8.83033 4.1665 4.16663 8.8302 4.16663 14.5832V35.4165C4.16663 41.1695 8.83033 45.8332 14.5833 45.8332H35.4166C41.1696 45.8332 45.8333 41.1695 45.8333 35.4165V14.5832C45.8333 8.8302 41.1696 4.1665 35.4166 4.1665Z" stroke="white" stroke-width="2" stroke-linecap="round" stroke-linejoin="round"></path>
    <path d="M33.3334 23.6876C33.5905 25.4215 33.2943 27.1923 32.487 28.7481C31.6797 30.3039 30.4024 31.5656 28.8368 32.3536C27.2711 33.1417 25.4968 33.416 23.7663 33.1375C22.0357 32.859 20.437 32.042 19.1976 30.8026C17.9582 29.5631 17.1411 27.9645 16.8627 26.2339C16.5842 24.5034 16.8585 22.7291 17.6466 21.1634C18.4346 19.5978 19.6963 18.3204 21.2521 17.5131C22.8079 16.7059 24.5787 16.4097 26.3125 16.6668C28.0811 16.9291 29.7185 17.7532 30.9827 19.0174C32.247 20.2817 33.0711 21.9191 33.3334 23.6876Z" stroke="white" stroke-width="2" stroke-linecap="round" stroke-linejoin="round"></path>
    <path d="M36.4584 13.5415H36.4792" stroke="white" stroke-width="2" stroke-linecap="round" stroke-linejoin="round"></path>
  </symbol>
  <symbol fill="none" xmlns="http://www.w3.org/2000/svg" viewBox="0 0 31 30" id="map">
    <path d="M27.1913 12.5C27.1913 21.25 15.95 28.75 15.95 28.75C15.95 28.75 4.70865 21.25 4.70865 12.5C4.70865 9.51631 5.893 6.65483 8.00116 4.54505C10.1093 2.43526 12.9686 1.25 15.95 1.25C18.9314 1.25 21.7907 2.43526 23.8988 4.54505C26.007 6.65483 27.1913 9.51631 27.1913 12.5Z" stroke="#17C2EC" stroke-width="2" stroke-linecap="round" stroke-linejoin="round"></path>
    <path d="M15.95 16.25C18.0195 16.25 19.6971 14.5711 19.6971 12.5C19.6971 10.4289 18.0195 8.75 15.95 8.75C13.8805 8.75 12.2029 10.4289 12.2029 12.5C12.2029 14.5711 13.8805 16.25 15.95 16.25Z" stroke="#17C2EC" stroke-width="2" stroke-linecap="round" stroke-linejoin="round"></path>
  </symbol>
  <symbol fill="none" xmlns="http://www.w3.org/2000/svg" viewBox="0 0 31 30" id="shield">
    <path d="M15.4054 27.5C15.4054 27.5 25.3977 22.5 25.3977 15V6.25L15.4054 2.5L5.41309 6.25V15C5.41309 22.5 15.4054 27.5 15.4054 27.5Z" stroke="#17C2EC" stroke-width="2" stroke-linecap="round" stroke-linejoin="round"></path>
  </symbol>
  <symbol fill="none" xmlns="http://www.w3.org/2000/svg" viewBox="0 0 50 50" id="thermometer">
    <path d="M29.2973 30.642V7.70061C29.2973 6.34972 28.7607 5.05415 27.8054 4.09892C26.8502 3.1437 25.5546 2.60706 24.2037 2.60706C22.8528 2.60706 21.5573 3.1437 20.6021 4.09892C19.6468 5.05415 19.1102 6.34972 19.1102 7.70061V30.642C17.4747 31.7347 16.234 33.3245 15.5713 35.1765C14.9087 37.0284 14.8591 39.0444 15.4301 40.9267C16.0011 42.8089 17.1622 44.4577 18.7421 45.6294C20.322 46.8011 22.2368 47.4337 24.2037 47.4337C26.1707 47.4337 28.0855 46.8011 29.6654 45.6294C31.2453 44.4577 32.4064 42.8089 32.9774 40.9267C33.5483 39.0444 33.4988 37.0284 32.8362 35.1765C32.1735 33.3245 30.9328 31.7347 29.2973 30.642Z" stroke="white" stroke-width="2.99376" stroke-linecap="round" stroke-linejoin="round"></path>
  </symbol>
  <symbol fill="none" xmlns="http://www.w3.org/2000/svg" viewBox="0 0 50 50" id="twitter">
    <path d="M47.9167 6.24995C45.9217 7.6572 43.7128 8.73351 41.375 9.43745C40.1203 7.99477 38.4528 6.97223 36.598 6.50813C34.7432 6.04404 32.7907 6.16078 31.0044 6.84256C29.2181 7.52435 27.6843 8.73829 26.6104 10.3202C25.5365 11.9021 24.9744 13.7757 25 15.6875V17.7708C21.3389 17.8657 17.711 17.0537 14.4396 15.4071C11.1683 13.7605 8.35487 11.3304 6.25004 8.33329C6.25004 8.33329 -2.08329 27.0833 16.6667 35.4166C12.3761 38.3291 7.26495 39.7894 2.08337 39.5833C20.8334 50 43.75 39.5833 43.75 15.625C43.7481 15.0446 43.6923 14.4658 43.5834 13.8958C45.7096 11.7989 47.2101 9.15144 47.9167 6.24995V6.24995Z" stroke="white" stroke-width="2" stroke-linecap="round" stroke-linejoin="round"></path>
  </symbol>
  <symbol fill="none" xmlns="http://www.w3.org/2000/svg" viewBox="0 0 50 49" id="users">
    <g clip-path="url(#clip0_36_171)">
      <path d="M35.291 42.3555V38.2807C35.291 36.1192 34.4324 34.0463 32.904 32.518C31.3757 30.9896 29.3028 30.131 27.1413 30.131H10.8419C8.68052 30.131 6.60761 30.9896 5.07925 32.518C3.55089 34.0463 2.69226 36.1192 2.69226 38.2807V42.3555" stroke="white" stroke-width="2.99376" stroke-linecap="round" stroke-linejoin="round"></path>
      <path d="M18.9917 21.9813C23.4926 21.9813 27.1414 18.3325 27.1414 13.8316C27.1414 9.33062 23.4926 5.68188 18.9917 5.68188C14.4907 5.68188 10.842 9.33062 10.842 13.8316C10.842 18.3325 14.4907 21.9813 18.9917 21.9813Z" stroke="white" stroke-width="2.99376" stroke-linecap="round" stroke-linejoin="round"></path>
      <path d="M47.5155 42.3554V38.2806C47.5142 36.4749 46.9132 34.7207 45.8069 33.2936C44.7006 31.8665 43.1516 30.8472 41.4033 30.3958" stroke="white" stroke-width="2.99376" stroke-linecap="round" stroke-linejoin="round"></path>
      <path d="M33.2536 5.94678C35.0066 6.39562 36.5604 7.41515 37.67 8.84462C38.7796 10.2741 39.3818 12.0322 39.3818 13.8418C39.3818 15.6514 38.7796 17.4095 37.67 18.839C36.5604 20.2684 35.0066 21.288 33.2536 21.7368" stroke="white" stroke-width="2.99376" stroke-linecap="round" stroke-linejoin="round"></path>
    </g>
    <defs>
      <clipPath id="clip0_36_171">
        <rect width="48.8981" height="48.8981" fill="white" transform="translate(0.654846 -0.430298)"></rect>
      </clipPath>
    </defs>
  </symbol>
  <symbol fill="none" xmlns="http://www.w3.org/2000/svg" viewBox="0 0 50 50" id="youtube">
    <path d="M46.9583 13.3752C46.7109 12.3864 46.2069 11.4805 45.4972 10.7489C44.7876 10.0173 43.8974 9.48596 42.9167 9.2085C39.3333 8.3335 25 8.3335 25 8.3335C25 8.3335 10.6667 8.3335 7.08334 9.29183C6.10261 9.5693 5.21246 10.1007 4.50282 10.8323C3.79317 11.5639 3.28915 12.4698 3.04168 13.4585C2.38587 17.0951 2.06509 20.7841 2.08334 24.4793C2.05997 28.2023 2.38078 31.9195 3.04168 35.5835C3.31451 36.5415 3.82982 37.413 4.53781 38.1137C5.24581 38.8144 6.12255 39.3206 7.08334 39.5835C10.6667 40.5418 25 40.5418 25 40.5418C25 40.5418 39.3333 40.5418 42.9167 39.5835C43.8974 39.306 44.7876 38.7747 45.4972 38.0431C46.2069 37.3115 46.7109 36.4056 46.9583 35.4168C47.6091 31.8076 47.9299 28.1467 47.9167 24.4793C47.9401 20.7563 47.6192 17.0391 46.9583 13.3752V13.3752Z" stroke="white" stroke-width="2" stroke-linecap="round" stroke-linejoin="round"></path>
    <path d="M20.3125 31.2915L32.2917 24.479L20.3125 17.6665V31.2915Z" stroke="white" stroke-width="2" stroke-linecap="round" stroke-linejoin="round"></path>
  </symbol>
  <symbol fill="none" xmlns="http://www.w3.org/2000/svg" viewBox="0 0 31 30" id="clock">
    <path d="M15.9807 27.5C22.879 27.5 28.4711 21.9036 28.4711 15C28.4711 8.09644 22.879 2.5 15.9807 2.5C9.08249 2.5 3.49036 8.09644 3.49036 15C3.49036 21.9036 9.08249 27.5 15.9807 27.5Z" stroke="#17C2EC" stroke-width="2" stroke-linecap="round" stroke-linejoin="round"></path>
    <path d="M15.9808 7.5V15L20.9769 17.5" stroke="#17C2EC" stroke-width="2" stroke-linecap="round" stroke-linejoin="round"></path>
  </symbol>
  <symbol fill="none" xmlns="http://www.w3.org/2000/svg" viewBox="0 0 38 38" id="dm">
    <path d="M35.6667 2.33301L24 35.6663L17.3334 20.6663L2.33337 13.9997L35.6667 2.33301Z" stroke="white" stroke-width="3" stroke-linecap="round" stroke-linejoin="round"></path>
  </symbol>
</svg>